<mxfile host="app.diagrams.net" agent="Mozilla/5.0 (Windows NT 10.0; Win64; x64) AppleWebKit/537.36 (KHTML, like Gecko) Chrome/135.0.0.0 Safari/537.36" version="26.2.14">
  <diagram name="ページ1" id="3eSbABof3HlpJ_iqo7cI">
    <mxGraphModel dx="382" dy="422" grid="0" gridSize="10" guides="1" tooltips="1" connect="1" arrows="1" fold="1" page="1" pageScale="1" pageWidth="1169" pageHeight="827" math="0" shadow="0">
      <root>
        <mxCell id="0" />
        <mxCell id="1" parent="0" />
        <mxCell id="KF8QCp19GWRYkNLYgpIQ-9" value="アーキテクチャ" style="rounded=0;whiteSpace=wrap;html=1;fontSize=19;align=center;" parent="1" vertex="1">
          <mxGeometry x="120" y="40" width="230" height="80" as="geometry" />
        </mxCell>
        <mxCell id="KF8QCp19GWRYkNLYgpIQ-10" value="ログイン" style="rounded=0;whiteSpace=wrap;html=1;fontSize=19;align=center;" parent="1" vertex="1">
          <mxGeometry x="350" y="40" width="540" height="80" as="geometry" />
        </mxCell>
        <mxCell id="KF8QCp19GWRYkNLYgpIQ-17" value="&lt;font style=&quot;font-size: 21px;&quot;&gt;メイン画面&lt;/font&gt;&lt;div&gt;&lt;font style=&quot;font-size: 21px;&quot;&gt;&lt;br&gt;&lt;/font&gt;&lt;/div&gt;&lt;div&gt;&lt;font style=&quot;font-size: 21px;&quot;&gt;マイページ&lt;/font&gt;&lt;/div&gt;" style="rounded=0;whiteSpace=wrap;html=1;" parent="1" vertex="1">
          <mxGeometry x="470" y="150" width="264" height="132" as="geometry" />
        </mxCell>
        <mxCell id="KF8QCp19GWRYkNLYgpIQ-18" value="&lt;span style=&quot;font-size: 21px;&quot;&gt;ログイン&lt;/span&gt;&lt;div&gt;&lt;span style=&quot;font-size: 21px;&quot;&gt;name&lt;/span&gt;&lt;/div&gt;&lt;div&gt;&lt;span style=&quot;font-size: 21px;&quot;&gt;pass&lt;/span&gt;&lt;/div&gt;" style="rounded=0;whiteSpace=wrap;html=1;" parent="1" vertex="1">
          <mxGeometry x="470" y="400" width="264" height="132" as="geometry" />
        </mxCell>
        <mxCell id="KF8QCp19GWRYkNLYgpIQ-20" value="" style="endArrow=classic;html=1;rounded=0;entryX=0.5;entryY=0;entryDx=0;entryDy=0;exitX=0.5;exitY=1;exitDx=0;exitDy=0;" parent="1" source="KF8QCp19GWRYkNLYgpIQ-17" target="KF8QCp19GWRYkNLYgpIQ-18" edge="1">
          <mxGeometry width="50" height="50" relative="1" as="geometry">
            <mxPoint x="468" y="330" as="sourcePoint" />
            <mxPoint x="518" y="280" as="targetPoint" />
          </mxGeometry>
        </mxCell>
        <mxCell id="KF8QCp19GWRYkNLYgpIQ-21" value="" style="endArrow=classic;html=1;rounded=0;exitX=0.5;exitY=1;exitDx=0;exitDy=0;" parent="1" edge="1">
          <mxGeometry width="50" height="50" relative="1" as="geometry">
            <mxPoint x="601.29" y="532" as="sourcePoint" />
            <mxPoint x="601.29" y="642" as="targetPoint" />
          </mxGeometry>
        </mxCell>
        <mxCell id="KF8QCp19GWRYkNLYgpIQ-22" value="&lt;span style=&quot;font-size: 21px;&quot;&gt;マイページ&lt;/span&gt;" style="rounded=0;whiteSpace=wrap;html=1;" parent="1" vertex="1">
          <mxGeometry x="470" y="640" width="264" height="132" as="geometry" />
        </mxCell>
        <mxCell id="KF8QCp19GWRYkNLYgpIQ-24" value="&lt;span style=&quot;font-size: 21px;&quot;&gt;ログイン失敗&lt;/span&gt;" style="rounded=0;whiteSpace=wrap;html=1;" parent="1" vertex="1">
          <mxGeometry x="103" y="400" width="264" height="132" as="geometry" />
        </mxCell>
        <mxCell id="KF8QCp19GWRYkNLYgpIQ-25" value="" style="endArrow=classic;html=1;rounded=0;" parent="1" edge="1">
          <mxGeometry width="50" height="50" relative="1" as="geometry">
            <mxPoint x="370" y="450" as="sourcePoint" />
            <mxPoint x="470" y="450" as="targetPoint" />
          </mxGeometry>
        </mxCell>
        <mxCell id="KF8QCp19GWRYkNLYgpIQ-26" value="" style="endArrow=classic;html=1;rounded=0;exitX=0;exitY=0.75;exitDx=0;exitDy=0;" parent="1" source="KF8QCp19GWRYkNLYgpIQ-18" edge="1">
          <mxGeometry width="50" height="50" relative="1" as="geometry">
            <mxPoint x="377" y="459" as="sourcePoint" />
            <mxPoint x="370" y="500" as="targetPoint" />
          </mxGeometry>
        </mxCell>
        <mxCell id="KF8QCp19GWRYkNLYgpIQ-27" value="" style="endArrow=classic;html=1;rounded=0;entryX=1;entryY=0.5;entryDx=0;entryDy=0;" parent="1" target="KF8QCp19GWRYkNLYgpIQ-17" edge="1">
          <mxGeometry width="50" height="50" relative="1" as="geometry">
            <mxPoint x="734" y="710" as="sourcePoint" />
            <mxPoint x="880" y="360" as="targetPoint" />
            <Array as="points">
              <mxPoint x="880" y="710" />
              <mxPoint x="880" y="216" />
            </Array>
          </mxGeometry>
        </mxCell>
      </root>
    </mxGraphModel>
  </diagram>
</mxfile>
